<svg xmlns="http://www.w3.org/2000/svg" xmlns:xlink="http://www.w3.org/1999/xlink" width="500" zoomAndPan="magnify" viewBox="0 0 375 374.999991" height="500" preserveAspectRatio="xMidYMid meet" version="1.0"><defs><clipPath id="9a0bd83e0d"><path d="M 68.128906 68.128906 L 306.628906 68.128906 L 306.628906 306.628906 L 68.128906 306.628906 Z M 68.128906 68.128906 " clip-rule="nonzero"/></clipPath></defs><g clip-path="url(#9a0bd83e0d)"><path fill="#ff8144" d="M 187.378906 68.128906 C 121.503906 68.128906 68.128906 121.503906 68.128906 187.378906 C 68.128906 253.253906 121.503906 306.628906 187.378906 306.628906 C 253.253906 306.628906 306.628906 253.253906 306.628906 187.378906 C 306.628906 121.503906 253.253906 68.128906 187.378906 68.128906 Z M 217.367188 117.359375 C 222.351562 117.359375 226.425781 132.386719 226.425781 150.859375 C 226.425781 169.398438 222.351562 184.359375 217.367188 184.359375 C 212.378906 184.359375 208.304688 169.328125 208.304688 150.859375 C 208.304688 132.386719 212.378906 117.359375 217.367188 117.359375 Z M 157.390625 117.359375 C 162.375 117.359375 166.449219 132.386719 166.449219 150.859375 C 166.449219 169.398438 162.375 184.359375 157.390625 184.359375 C 152.402344 184.359375 148.332031 169.328125 148.332031 150.859375 C 148.332031 132.386719 152.332031 117.359375 157.390625 117.359375 Z M 272.707031 212.449219 C 269.265625 212.449219 265.964844 211.535156 263.15625 209.921875 C 255.710938 244.824219 224.667969 271.089844 187.519531 271.089844 C 151.351562 271.089844 120.871094 246.089844 112.511719 212.449219 C 109.421875 214.417969 105.839844 215.539062 101.980469 215.539062 C 90.671875 215.539062 81.542969 205.777344 81.542969 193.769531 C 81.542969 181.757812 90.671875 171.996094 101.980469 171.996094 C 111.742188 171.996094 119.886719 179.300781 121.925781 188.992188 C 122.554688 189.273438 122.976562 189.835938 122.976562 190.539062 C 122.976562 191.101562 122.765625 191.589844 122.34375 191.941406 C 122.414062 192.503906 122.414062 193.136719 122.414062 193.699219 C 122.414062 200.160156 119.746094 205.988281 115.53125 209.992188 C 122.976562 242.859375 152.402344 267.511719 187.519531 267.511719 C 223.476562 267.511719 253.464844 241.664062 259.996094 207.605469 C 255.570312 203.882812 252.691406 198.261719 252.339844 191.871094 C 251.917969 191.523438 251.707031 191.03125 251.707031 190.46875 C 251.707031 189.976562 251.988281 189.484375 252.339844 189.203125 C 252.972656 177.757812 261.890625 168.765625 272.707031 168.765625 C 284.015625 168.765625 293.144531 178.527344 293.144531 190.539062 C 293.144531 202.546875 284.015625 212.449219 272.707031 212.449219 Z M 272.707031 212.449219 " fill-opacity="1" fill-rule="nonzero"/></g><path fill="#ffcfde" d="M 113.777344 194.261719 C 113.847656 199.667969 114.410156 204.933594 115.601562 210.0625 C 119.816406 206.058594 122.484375 200.230469 122.484375 193.769531 C 122.484375 193.136719 122.484375 192.574219 122.414062 192.011719 C 122.132812 192.222656 121.785156 192.433594 121.363281 192.433594 C 121.011719 192.433594 117.640625 192.574219 113.777344 194.261719 Z M 113.777344 194.261719 " fill-opacity="1" fill-rule="nonzero"/><path fill="#ffcfde" d="M 110.335938 196.296875 C 110.546875 201.84375 111.25 207.253906 112.582031 212.449219 C 109.492188 214.417969 105.910156 215.539062 102.050781 215.539062 C 90.742188 215.539062 81.613281 205.777344 81.613281 193.769531 C 81.613281 181.757812 90.742188 171.996094 102.050781 171.996094 C 111.8125 171.996094 119.957031 179.300781 121.992188 188.992188 C 121.785156 188.921875 121.503906 188.851562 121.292969 188.851562 C 121.152344 188.851562 105.558594 189.414062 100.433594 204.09375 C 100.082031 205.003906 100.574219 205.988281 101.488281 206.339844 C 101.699219 206.410156 101.910156 206.410156 102.050781 206.410156 C 102.75 206.410156 103.453125 205.988281 103.734375 205.214844 C 105.140625 201.074219 107.667969 198.191406 110.335938 196.296875 Z M 272.707031 168.835938 C 261.820312 168.835938 252.972656 177.898438 252.339844 189.273438 C 252.621094 188.992188 253.042969 188.851562 253.464844 188.851562 C 253.464844 188.851562 253.464844 188.851562 253.535156 188.851562 C 253.675781 188.851562 269.265625 189.414062 274.390625 204.09375 C 274.742188 205.003906 274.253906 205.988281 273.339844 206.339844 C 273.128906 206.410156 272.917969 206.410156 272.777344 206.410156 C 272.074219 206.410156 271.371094 205.988281 271.089844 205.214844 C 269.6875 201.144531 267.300781 198.402344 264.839844 196.507812 C 264.699219 201.074219 264.140625 205.496094 263.226562 209.851562 C 266.105469 211.464844 269.335938 212.378906 272.777344 212.378906 C 284.085938 212.378906 293.214844 202.617188 293.214844 190.609375 C 293.214844 178.597656 284.015625 168.835938 272.707031 168.835938 Z M 272.707031 168.835938 " fill-opacity="1" fill-rule="nonzero"/><path fill="#ffcfde" d="M 253.464844 192.433594 C 253.042969 192.433594 252.691406 192.222656 252.339844 192.011719 C 252.691406 198.402344 255.640625 204.023438 259.996094 207.746094 C 260.839844 203.460938 261.257812 199.035156 261.328125 194.472656 C 257.328125 192.574219 253.746094 192.433594 253.464844 192.433594 Z M 253.464844 192.433594 " fill-opacity="1" fill-rule="nonzero"/><path fill="#000000" d="M 264.839844 196.578125 C 264.699219 201.144531 264.140625 205.566406 263.226562 209.921875 C 255.78125 244.824219 224.738281 271.089844 187.589844 271.089844 C 151.421875 271.089844 120.941406 246.089844 112.582031 212.449219 C 111.320312 207.253906 110.546875 201.84375 110.335938 196.296875 C 111.460938 195.453125 112.652344 194.824219 113.777344 194.332031 C 113.847656 199.738281 114.410156 205.003906 115.601562 210.132812 C 123.046875 243 152.472656 267.652344 187.589844 267.652344 C 223.546875 267.652344 253.535156 241.804688 260.066406 207.746094 C 260.910156 203.460938 261.328125 199.035156 261.398438 194.472656 C 262.523438 195.03125 263.648438 195.664062 264.839844 196.578125 Z M 100.363281 204.164062 C 100.011719 205.074219 100.503906 206.058594 101.417969 206.410156 C 101.628906 206.480469 101.839844 206.480469 101.980469 206.480469 C 102.679688 206.480469 103.382812 206.058594 103.664062 205.285156 C 105.140625 201.003906 107.667969 198.191406 110.335938 196.296875 C 111.460938 195.453125 112.652344 194.824219 113.777344 194.332031 C 117.640625 192.574219 121.011719 192.433594 121.292969 192.433594 C 121.714844 192.433594 122.0625 192.292969 122.34375 192.011719 C 122.765625 191.660156 122.976562 191.171875 122.976562 190.609375 C 122.976562 189.90625 122.554688 189.273438 121.925781 189.0625 C 121.714844 188.992188 121.433594 188.921875 121.222656 188.921875 C 121.082031 188.921875 105.488281 189.484375 100.363281 204.164062 Z M 261.328125 194.472656 C 262.453125 195.03125 263.648438 195.734375 264.769531 196.578125 C 267.300781 198.472656 269.617188 201.285156 271.019531 205.285156 C 271.300781 205.988281 271.933594 206.480469 272.707031 206.480469 C 272.917969 206.480469 273.128906 206.480469 273.269531 206.410156 C 274.183594 206.058594 274.671875 205.074219 274.324219 204.164062 C 269.195312 189.484375 253.605469 188.921875 253.464844 188.921875 C 253.464844 188.921875 253.464844 188.921875 253.394531 188.921875 C 252.972656 188.921875 252.550781 189.0625 252.269531 189.34375 C 251.917969 189.625 251.636719 190.117188 251.636719 190.609375 C 251.636719 191.171875 251.847656 191.660156 252.269531 192.011719 C 252.550781 192.292969 252.972656 192.433594 253.394531 192.433594 C 253.746094 192.433594 257.328125 192.574219 261.328125 194.472656 Z M 157.390625 184.429688 C 162.375 184.429688 166.449219 169.398438 166.449219 150.929688 C 166.449219 132.386719 162.375 117.429688 157.390625 117.429688 C 152.402344 117.429688 148.332031 132.457031 148.332031 150.929688 C 148.332031 169.398438 152.332031 184.429688 157.390625 184.429688 Z M 217.367188 184.429688 C 222.351562 184.429688 226.425781 169.398438 226.425781 150.929688 C 226.425781 132.386719 222.351562 117.429688 217.367188 117.429688 C 212.378906 117.429688 208.304688 132.457031 208.304688 150.929688 C 208.304688 169.398438 212.378906 184.429688 217.367188 184.429688 Z M 217.367188 184.429688 " fill-opacity="1" fill-rule="nonzero"/></svg>