<svg xmlns="http://www.w3.org/2000/svg" xmlns:xlink="http://www.w3.org/1999/xlink" width="497" zoomAndPan="magnify" viewBox="0 0 372.75 140.249994" height="187" preserveAspectRatio="xMidYMid meet" version="1.0"><defs><g/></defs><g fill="#ff8144" fill-opacity="0.302"><g transform="translate(43.261338, 94.242117)"><g><path d="M 2.433594 -47.667969 L 2.433594 -6.378906 C 2.433594 -3.296875 2 -1.460938 0.539062 0 L 11.835938 0 C 15.023438 0 17.835938 -1.460938 17.835938 -4.757812 C 17.835938 -12.539062 5.566406 -20.539062 5.566406 -37.832031 C 5.566406 -40.320312 5.78125 -43.722656 7.566406 -43.722656 C 10.160156 -43.722656 15.296875 -27.132812 16.539062 -23.347656 C 19.292969 -14.972656 22.050781 -5.457031 23.996094 -5.457031 C 26.105469 -5.457031 27.617188 -14.105469 29.835938 -23.1875 C 32.265625 -33.183594 35.292969 -43.722656 37.347656 -43.722656 C 39.128906 -43.722656 39.347656 -40.320312 39.347656 -37.832031 L 39.347656 -6.378906 C 39.347656 -3.296875 38.914062 -1.460938 37.453125 0 L 55.5625 0 C 54.101562 -1.460938 53.667969 -3.296875 53.667969 -6.378906 L 53.667969 -47.667969 C 53.667969 -50.75 54.101562 -52.589844 55.5625 -54.046875 L 38.480469 -54.046875 C 33.347656 -54.046875 33.292969 -47.886719 28.105469 -32.265625 C 22.917969 -47.886719 22.863281 -54.046875 17.726562 -54.046875 L 0.539062 -54.046875 C 2 -52.589844 2.433594 -50.75 2.433594 -47.667969 Z M 2.433594 -47.667969 "/></g></g></g><g fill="#ff8144" fill-opacity="0.302"><g transform="translate(99.355212, 94.242117)"><g><path d="M 0 -54.046875 C 6.214844 -49.183594 6.808594 -37.832031 7.511719 -30.699219 C 8.105469 -24.863281 10.054688 -18.375 18.214844 -18.375 C 22.105469 -18.375 22.917969 -19.726562 24.320312 -19.726562 C 24.753906 -19.726562 25.023438 -19.347656 25.023438 -18.917969 C 25.023438 -15.671875 12.699219 -12.214844 12.699219 -5.1875 C 12.699219 -2.863281 13.726562 0 16.050781 0 L 29.1875 0 C 31.238281 0 31.996094 -0.648438 31.996094 -1.511719 C 31.996094 -4.160156 26.699219 -6 26.699219 -14.050781 C 26.699219 -21.1875 43.238281 -29.941406 43.238281 -46.101562 C 43.238281 -49.453125 42.535156 -54.046875 38.96875 -54.046875 L 26.375 -54.046875 C 24.644531 -54.046875 23.347656 -52.640625 23.347656 -50.964844 C 23.347656 -45.832031 31.347656 -38.265625 31.347656 -31.238281 C 31.347656 -27.835938 30.210938 -22.539062 23.132812 -22.484375 C 18.644531 -22.429688 16.539062 -25.1875 16.539062 -27.886719 C 16.539062 -34.753906 21.566406 -37.832031 21.566406 -44.75 C 21.566406 -49.019531 19.726562 -54.046875 14.539062 -54.046875 Z M 0 -54.046875 "/></g></g></g><g fill="#ff8144" fill-opacity="0.302"><g transform="translate(143.668291, 94.242117)"><g/></g></g><g fill="#ff8144" fill-opacity="0.302"><g transform="translate(162.582413, 94.242117)"><g><path d="M 2.269531 -33.023438 C 4.972656 -33.023438 9.78125 -51.34375 13.242188 -51.34375 C 14.808594 -51.34375 14.917969 -49.5625 14.917969 -47.886719 L 14.917969 -6.378906 C 14.917969 -3.296875 14.484375 -1.460938 13.027344 0 L 31.132812 0 C 29.671875 -1.460938 29.238281 -3.296875 29.238281 -6.378906 L 29.238281 -47.886719 C 29.238281 -49.5625 29.347656 -51.34375 30.914062 -51.34375 C 34.375 -51.34375 39.183594 -33.023438 41.886719 -33.023438 C 42.644531 -33.023438 43.074219 -33.617188 43.074219 -34.320312 L 43.074219 -54.046875 L 1.082031 -54.046875 L 1.082031 -34.320312 C 1.082031 -33.617188 1.511719 -33.023438 2.269531 -33.023438 Z M 2.269531 -33.023438 "/></g></g></g><g fill="#ff8144" fill-opacity="0.302"><g transform="translate(206.733366, 94.242117)"><g><path d="M 1.351562 -27.023438 C 1.351562 -10.324219 9.835938 0.8125 22.644531 0.8125 C 35.347656 0.8125 43.886719 -10.324219 43.886719 -27.023438 C 43.886719 -43.722656 35.347656 -54.859375 22.644531 -54.859375 C 9.835938 -54.859375 1.351562 -43.722656 1.351562 -27.023438 Z M 18.269531 -51.183594 C 29.671875 -51.183594 37.996094 -2.863281 25.941406 -2.863281 C 16.324219 -2.863281 8.160156 -51.183594 18.269531 -51.183594 Z M 18.269531 -51.183594 "/></g></g></g><g fill="#ff8144" fill-opacity="0.302"><g transform="translate(251.965117, 94.242117)"><g><path d="M 0.539062 -54.046875 C 2 -52.589844 2.433594 -50.75 2.433594 -47.667969 L 2.433594 -6.378906 C 2.433594 -3.296875 2 -1.460938 0.539062 0 L 23.511719 0 C 34.105469 0 40.375 -4.160156 40.375 -20.214844 C 40.375 -33.832031 33.617188 -54.046875 17.132812 -54.046875 Z M 20.808594 -50.964844 C 25.78125 -50.964844 26.214844 -37.347656 26.214844 -26.914062 C 26.214844 -11.027344 24.589844 -2.757812 20.484375 -2.757812 C 17.457031 -2.757812 16.484375 -6.703125 16.484375 -16.214844 C 16.484375 -17.078125 16.484375 -26.160156 16.484375 -27.023438 C 16.484375 -27.886719 16.484375 -36.96875 16.484375 -37.832031 C 16.484375 -47.34375 17.457031 -50.964844 20.808594 -50.964844 Z M 20.808594 -50.964844 "/></g></g></g><g fill="#ff8144" fill-opacity="0.502"><g transform="translate(40.872756, 91.853535)"><g><path d="M 2.433594 -47.667969 L 2.433594 -6.378906 C 2.433594 -3.296875 2 -1.460938 0.539062 0 L 11.835938 0 C 15.023438 0 17.835938 -1.460938 17.835938 -4.757812 C 17.835938 -12.539062 5.566406 -20.539062 5.566406 -37.832031 C 5.566406 -40.320312 5.78125 -43.722656 7.566406 -43.722656 C 10.160156 -43.722656 15.296875 -27.132812 16.539062 -23.347656 C 19.292969 -14.972656 22.050781 -5.457031 23.996094 -5.457031 C 26.105469 -5.457031 27.617188 -14.105469 29.835938 -23.1875 C 32.265625 -33.183594 35.292969 -43.722656 37.347656 -43.722656 C 39.128906 -43.722656 39.347656 -40.320312 39.347656 -37.832031 L 39.347656 -6.378906 C 39.347656 -3.296875 38.914062 -1.460938 37.453125 0 L 55.5625 0 C 54.101562 -1.460938 53.667969 -3.296875 53.667969 -6.378906 L 53.667969 -47.667969 C 53.667969 -50.75 54.101562 -52.589844 55.5625 -54.046875 L 38.480469 -54.046875 C 33.347656 -54.046875 33.292969 -47.886719 28.105469 -32.265625 C 22.917969 -47.886719 22.863281 -54.046875 17.726562 -54.046875 L 0.539062 -54.046875 C 2 -52.589844 2.433594 -50.75 2.433594 -47.667969 Z M 2.433594 -47.667969 "/></g></g></g><g fill="#ff8144" fill-opacity="0.502"><g transform="translate(96.96663, 91.853535)"><g><path d="M 0 -54.046875 C 6.214844 -49.183594 6.808594 -37.832031 7.511719 -30.699219 C 8.105469 -24.863281 10.054688 -18.375 18.214844 -18.375 C 22.105469 -18.375 22.917969 -19.726562 24.320312 -19.726562 C 24.753906 -19.726562 25.023438 -19.347656 25.023438 -18.917969 C 25.023438 -15.671875 12.699219 -12.214844 12.699219 -5.1875 C 12.699219 -2.863281 13.726562 0 16.050781 0 L 29.1875 0 C 31.238281 0 31.996094 -0.648438 31.996094 -1.511719 C 31.996094 -4.160156 26.699219 -6 26.699219 -14.050781 C 26.699219 -21.1875 43.238281 -29.941406 43.238281 -46.101562 C 43.238281 -49.453125 42.535156 -54.046875 38.96875 -54.046875 L 26.375 -54.046875 C 24.644531 -54.046875 23.347656 -52.640625 23.347656 -50.964844 C 23.347656 -45.832031 31.347656 -38.265625 31.347656 -31.238281 C 31.347656 -27.835938 30.210938 -22.539062 23.132812 -22.484375 C 18.644531 -22.429688 16.539062 -25.1875 16.539062 -27.886719 C 16.539062 -34.753906 21.566406 -37.832031 21.566406 -44.75 C 21.566406 -49.019531 19.726562 -54.046875 14.539062 -54.046875 Z M 0 -54.046875 "/></g></g></g><g fill="#ff8144" fill-opacity="0.502"><g transform="translate(141.279709, 91.853535)"><g/></g></g><g fill="#ff8144" fill-opacity="0.502"><g transform="translate(160.193831, 91.853535)"><g><path d="M 2.269531 -33.023438 C 4.972656 -33.023438 9.78125 -51.34375 13.242188 -51.34375 C 14.808594 -51.34375 14.917969 -49.5625 14.917969 -47.886719 L 14.917969 -6.378906 C 14.917969 -3.296875 14.484375 -1.460938 13.027344 0 L 31.132812 0 C 29.671875 -1.460938 29.238281 -3.296875 29.238281 -6.378906 L 29.238281 -47.886719 C 29.238281 -49.5625 29.347656 -51.34375 30.914062 -51.34375 C 34.375 -51.34375 39.183594 -33.023438 41.886719 -33.023438 C 42.644531 -33.023438 43.074219 -33.617188 43.074219 -34.320312 L 43.074219 -54.046875 L 1.082031 -54.046875 L 1.082031 -34.320312 C 1.082031 -33.617188 1.511719 -33.023438 2.269531 -33.023438 Z M 2.269531 -33.023438 "/></g></g></g><g fill="#ff8144" fill-opacity="0.502"><g transform="translate(204.344784, 91.853535)"><g><path d="M 1.351562 -27.023438 C 1.351562 -10.324219 9.835938 0.8125 22.644531 0.8125 C 35.347656 0.8125 43.886719 -10.324219 43.886719 -27.023438 C 43.886719 -43.722656 35.347656 -54.859375 22.644531 -54.859375 C 9.835938 -54.859375 1.351562 -43.722656 1.351562 -27.023438 Z M 18.269531 -51.183594 C 29.671875 -51.183594 37.996094 -2.863281 25.941406 -2.863281 C 16.324219 -2.863281 8.160156 -51.183594 18.269531 -51.183594 Z M 18.269531 -51.183594 "/></g></g></g><g fill="#ff8144" fill-opacity="0.502"><g transform="translate(249.576536, 91.853535)"><g><path d="M 0.539062 -54.046875 C 2 -52.589844 2.433594 -50.75 2.433594 -47.667969 L 2.433594 -6.378906 C 2.433594 -3.296875 2 -1.460938 0.539062 0 L 23.511719 0 C 34.105469 0 40.375 -4.160156 40.375 -20.214844 C 40.375 -33.832031 33.617188 -54.046875 17.132812 -54.046875 Z M 20.808594 -50.964844 C 25.78125 -50.964844 26.214844 -37.347656 26.214844 -26.914062 C 26.214844 -11.027344 24.589844 -2.757812 20.484375 -2.757812 C 17.457031 -2.757812 16.484375 -6.703125 16.484375 -16.214844 C 16.484375 -17.078125 16.484375 -26.160156 16.484375 -27.023438 C 16.484375 -27.886719 16.484375 -36.96875 16.484375 -37.832031 C 16.484375 -47.34375 17.457031 -50.964844 20.808594 -50.964844 Z M 20.808594 -50.964844 "/></g></g></g><g fill="#ff8144" fill-opacity="1"><g transform="translate(38.484178, 89.464957)"><g><path d="M 2.433594 -47.667969 L 2.433594 -6.378906 C 2.433594 -3.296875 2 -1.460938 0.539062 0 L 11.835938 0 C 15.023438 0 17.835938 -1.460938 17.835938 -4.757812 C 17.835938 -12.539062 5.566406 -20.539062 5.566406 -37.832031 C 5.566406 -40.320312 5.78125 -43.722656 7.566406 -43.722656 C 10.160156 -43.722656 15.296875 -27.132812 16.539062 -23.347656 C 19.292969 -14.972656 22.050781 -5.457031 23.996094 -5.457031 C 26.105469 -5.457031 27.617188 -14.105469 29.835938 -23.1875 C 32.265625 -33.183594 35.292969 -43.722656 37.347656 -43.722656 C 39.128906 -43.722656 39.347656 -40.320312 39.347656 -37.832031 L 39.347656 -6.378906 C 39.347656 -3.296875 38.914062 -1.460938 37.453125 0 L 55.5625 0 C 54.101562 -1.460938 53.667969 -3.296875 53.667969 -6.378906 L 53.667969 -47.667969 C 53.667969 -50.75 54.101562 -52.589844 55.5625 -54.046875 L 38.480469 -54.046875 C 33.347656 -54.046875 33.292969 -47.886719 28.105469 -32.265625 C 22.917969 -47.886719 22.863281 -54.046875 17.726562 -54.046875 L 0.539062 -54.046875 C 2 -52.589844 2.433594 -50.75 2.433594 -47.667969 Z M 2.433594 -47.667969 "/></g></g></g><g fill="#ff8144" fill-opacity="1"><g transform="translate(94.578052, 89.464957)"><g><path d="M 0 -54.046875 C 6.214844 -49.183594 6.808594 -37.832031 7.511719 -30.699219 C 8.105469 -24.863281 10.054688 -18.375 18.214844 -18.375 C 22.105469 -18.375 22.917969 -19.726562 24.320312 -19.726562 C 24.753906 -19.726562 25.023438 -19.347656 25.023438 -18.917969 C 25.023438 -15.671875 12.699219 -12.214844 12.699219 -5.1875 C 12.699219 -2.863281 13.726562 0 16.050781 0 L 29.1875 0 C 31.238281 0 31.996094 -0.648438 31.996094 -1.511719 C 31.996094 -4.160156 26.699219 -6 26.699219 -14.050781 C 26.699219 -21.1875 43.238281 -29.941406 43.238281 -46.101562 C 43.238281 -49.453125 42.535156 -54.046875 38.96875 -54.046875 L 26.375 -54.046875 C 24.644531 -54.046875 23.347656 -52.640625 23.347656 -50.964844 C 23.347656 -45.832031 31.347656 -38.265625 31.347656 -31.238281 C 31.347656 -27.835938 30.210938 -22.539062 23.132812 -22.484375 C 18.644531 -22.429688 16.539062 -25.1875 16.539062 -27.886719 C 16.539062 -34.753906 21.566406 -37.832031 21.566406 -44.75 C 21.566406 -49.019531 19.726562 -54.046875 14.539062 -54.046875 Z M 0 -54.046875 "/></g></g></g><g fill="#ff8144" fill-opacity="1"><g transform="translate(138.891131, 89.464957)"><g/></g></g><g fill="#ff8144" fill-opacity="1"><g transform="translate(157.805253, 89.464957)"><g><path d="M 2.269531 -33.023438 C 4.972656 -33.023438 9.78125 -51.34375 13.242188 -51.34375 C 14.808594 -51.34375 14.917969 -49.5625 14.917969 -47.886719 L 14.917969 -6.378906 C 14.917969 -3.296875 14.484375 -1.460938 13.027344 0 L 31.132812 0 C 29.671875 -1.460938 29.238281 -3.296875 29.238281 -6.378906 L 29.238281 -47.886719 C 29.238281 -49.5625 29.347656 -51.34375 30.914062 -51.34375 C 34.375 -51.34375 39.183594 -33.023438 41.886719 -33.023438 C 42.644531 -33.023438 43.074219 -33.617188 43.074219 -34.320312 L 43.074219 -54.046875 L 1.082031 -54.046875 L 1.082031 -34.320312 C 1.082031 -33.617188 1.511719 -33.023438 2.269531 -33.023438 Z M 2.269531 -33.023438 "/></g></g></g><g fill="#ff8144" fill-opacity="1"><g transform="translate(201.956206, 89.464957)"><g><path d="M 1.351562 -27.023438 C 1.351562 -10.324219 9.835938 0.8125 22.644531 0.8125 C 35.347656 0.8125 43.886719 -10.324219 43.886719 -27.023438 C 43.886719 -43.722656 35.347656 -54.859375 22.644531 -54.859375 C 9.835938 -54.859375 1.351562 -43.722656 1.351562 -27.023438 Z M 18.269531 -51.183594 C 29.671875 -51.183594 37.996094 -2.863281 25.941406 -2.863281 C 16.324219 -2.863281 8.160156 -51.183594 18.269531 -51.183594 Z M 18.269531 -51.183594 "/></g></g></g><g fill="#ff8144" fill-opacity="1"><g transform="translate(247.187957, 89.464957)"><g><path d="M 0.539062 -54.046875 C 2 -52.589844 2.433594 -50.75 2.433594 -47.667969 L 2.433594 -6.378906 C 2.433594 -3.296875 2 -1.460938 0.539062 0 L 23.511719 0 C 34.105469 0 40.375 -4.160156 40.375 -20.214844 C 40.375 -33.832031 33.617188 -54.046875 17.132812 -54.046875 Z M 20.808594 -50.964844 C 25.78125 -50.964844 26.214844 -37.347656 26.214844 -26.914062 C 26.214844 -11.027344 24.589844 -2.757812 20.484375 -2.757812 C 17.457031 -2.757812 16.484375 -6.703125 16.484375 -16.214844 C 16.484375 -17.078125 16.484375 -26.160156 16.484375 -27.023438 C 16.484375 -27.886719 16.484375 -36.96875 16.484375 -37.832031 C 16.484375 -47.34375 17.457031 -50.964844 20.808594 -50.964844 Z M 20.808594 -50.964844 "/></g></g></g><g fill="#ff8144" fill-opacity="0.302"><g transform="translate(293.975866, 94.209821)"><g><path d="M 1.351562 -27.011719 C 1.351562 -10.316406 9.832031 0.808594 22.632812 0.808594 C 35.328125 0.808594 43.863281 -10.316406 43.863281 -27.011719 C 43.863281 -43.703125 35.328125 -54.832031 22.632812 -54.832031 C 9.832031 -54.832031 1.351562 -43.703125 1.351562 -27.011719 Z M 18.257812 -51.15625 C 29.65625 -51.15625 37.976562 -2.863281 25.929688 -2.863281 C 16.3125 -2.863281 8.15625 -51.15625 18.257812 -51.15625 Z M 18.257812 -51.15625 "/></g></g></g><g fill="#ff8144" fill-opacity="0.502"><g transform="translate(291.58837, 91.822303)"><g><path d="M 1.351562 -27.011719 C 1.351562 -10.316406 9.832031 0.808594 22.632812 0.808594 C 35.328125 0.808594 43.863281 -10.316406 43.863281 -27.011719 C 43.863281 -43.703125 35.328125 -54.832031 22.632812 -54.832031 C 9.832031 -54.832031 1.351562 -43.703125 1.351562 -27.011719 Z M 18.257812 -51.15625 C 29.65625 -51.15625 37.976562 -2.863281 25.929688 -2.863281 C 16.3125 -2.863281 8.15625 -51.15625 18.257812 -51.15625 Z M 18.257812 -51.15625 "/></g></g></g><g fill="#ff8144" fill-opacity="1"><g transform="translate(289.200845, 89.434785)"><g><path d="M 1.351562 -27.011719 C 1.351562 -10.316406 9.832031 0.808594 22.632812 0.808594 C 35.328125 0.808594 43.863281 -10.316406 43.863281 -27.011719 C 43.863281 -43.703125 35.328125 -54.832031 22.632812 -54.832031 C 9.832031 -54.832031 1.351562 -43.703125 1.351562 -27.011719 Z M 18.257812 -51.15625 C 29.65625 -51.15625 37.976562 -2.863281 25.929688 -2.863281 C 16.3125 -2.863281 8.15625 -51.15625 18.257812 -51.15625 Z M 18.257812 -51.15625 "/></g></g></g></svg>