<svg xmlns="http://www.w3.org/2000/svg" xmlns:xlink="http://www.w3.org/1999/xlink" width="298" zoomAndPan="magnify" viewBox="0 0 223.5 199.499995" height="266" preserveAspectRatio="xMidYMid meet" version="1.0"><defs><g/><clipPath id="cfc4160759"><path d="M 144 58 L 183 58 L 183 97.519531 L 144 97.519531 Z M 144 58 " clip-rule="nonzero"/></clipPath><clipPath id="90ba6e785c"><path d="M 39 121 L 78 121 L 78 161.207031 L 39 161.207031 Z M 39 121 " clip-rule="nonzero"/></clipPath></defs><g clip-path="url(#cfc4160759)"><path fill="#aed6ff" d="M 162.257812 69.796875 C 162.257812 69.796875 162.753906 57.023438 156.574219 58.316406 C 150.398438 59.605469 150.078125 66.332031 156.574219 72.445312 C 156.574219 72.445312 146.308594 67.148438 144.46875 72.445312 C 142.628906 77.746094 148.148438 83.453125 155.714844 79.988281 C 155.714844 79.988281 146.105469 83.859375 149.785156 90.179688 C 153.464844 96.496094 160.007812 88.953125 160.824219 85.082031 C 160.824219 85.082031 155.917969 96.496094 165.730469 97.515625 C 165.730469 97.515625 171.25 95.273438 168.183594 84.878906 C 168.183594 84.878906 172.480469 94.867188 180.042969 90.789062 C 180.042969 90.789062 184.480469 84.878906 173.0625 79.578125 C 173.0625 79.578125 185.359375 77.335938 182.292969 71.019531 C 182.292969 71.019531 178.816406 61.847656 169.820312 73.464844 C 169.820312 73.464844 177.324219 66.128906 173.0625 60.828125 C 168.796875 55.53125 163.484375 62.664062 162.257812 69.796875 Z M 162.257812 69.796875 " fill-opacity="1" fill-rule="nonzero"/></g><g clip-path="url(#90ba6e785c)"><path fill="#aed6ff" d="M 57.367188 133.480469 C 57.367188 133.480469 57.867188 120.710938 51.6875 122 C 45.511719 123.292969 45.191406 130.015625 51.6875 136.132812 C 51.6875 136.132812 41.421875 130.832031 39.582031 136.132812 C 37.742188 141.429688 43.261719 147.136719 50.824219 143.671875 C 50.824219 143.671875 41.21875 147.546875 44.898438 153.863281 C 48.578125 160.179688 55.121094 152.640625 55.9375 148.769531 C 55.9375 148.769531 51.03125 160.179688 60.84375 161.199219 C 60.84375 161.199219 66.363281 158.957031 63.296875 148.5625 C 63.296875 148.5625 67.589844 158.550781 75.15625 154.472656 C 75.15625 154.472656 79.589844 148.5625 68.171875 143.265625 C 68.171875 143.265625 80.472656 141.023438 77.402344 134.703125 C 77.402344 134.703125 73.929688 125.53125 64.933594 137.152344 C 64.933594 137.152344 72.4375 129.8125 68.171875 124.515625 C 63.910156 119.214844 58.59375 126.347656 57.367188 133.480469 Z M 57.367188 133.480469 " fill-opacity="1" fill-rule="nonzero"/></g><g fill="#e06034" fill-opacity="1"><g transform="translate(68.387277, 88.083781)"><g><path d="M 32.355469 -0.289062 C 39.660156 2.320312 39.023438 -12.582031 38.847656 -15.828125 C 38.675781 -20.121094 38.09375 -24.410156 37.339844 -28.699219 C 36.875 -31.308594 36.703125 -34.730469 34.558594 -36.585938 C 28.816406 -41.632812 22.84375 -32.296875 20.292969 -28.296875 C 17.511719 -32.296875 10.667969 -41.109375 5.566406 -34.90625 C 3.769531 -32.644531 3.652344 -29.28125 3.246094 -26.554688 C 2.550781 -21.976562 1.855469 -17.335938 1.390625 -12.699219 C 0.984375 -9.394531 0.175781 -5.160156 2.203125 -2.203125 C 4 0.347656 6.785156 0.347656 8.640625 -2.144531 C 12.757812 -7.710938 10.03125 -15.828125 12.640625 -21.742188 C 14.261719 -19.074219 16.351562 -13.394531 20.003906 -13.160156 C 23.484375 -12.929688 26.789062 -17.453125 28.992188 -19.65625 C 29.570312 -15.308594 29.339844 -11.015625 29.628906 -6.667969 C 29.746094 -4.523438 29.917969 -1.21875 32.355469 -0.289062 Z M 32.355469 -0.289062 "/></g></g></g><g fill="#f8c737" fill-opacity="1"><g transform="translate(116.717654, 100.273061)"><g><path d="M 16.46875 -1.625 C 19.597656 -4.636719 19.25 -9.335938 18.785156 -15.25 C 18.324219 -18.960938 18.4375 -19.886719 20.527344 -22.902344 C 21.859375 -24.875 23.191406 -26.902344 24.238281 -29.105469 C 25.339844 -31.484375 27.425781 -36.414062 24.0625 -37.976562 C 18.84375 -40.472656 15.769531 -31.253906 13.800781 -28.003906 C 12.117188 -31.65625 11.539062 -37.050781 7.539062 -39.023438 C 2.839844 -41.339844 0 -37.339844 1.101562 -33.050781 C 2.261719 -28.296875 6.550781 -24.527344 7.132812 -19.886719 C 7.652344 -15.191406 5.449219 -6.726562 8.175781 -2.550781 C 10.378906 0.753906 15.015625 1.042969 16.46875 -1.625 Z M 16.46875 -1.625 "/></g></g></g><g fill="#f8c737" fill-opacity="1"><g transform="translate(57.800113, 136.231625)"><g><path d="M 10.339844 0 C 17.007812 -0.125 13.632812 -16.59375 13.132812 -19.925781 C 14.800781 -19.925781 17.96875 -19.59375 19.09375 -21.054688 C 20.261719 -22.511719 19.21875 -24.511719 17.71875 -25.222656 C 15.507812 -26.265625 12.632812 -25.890625 10.253906 -26.015625 C 8.128906 -26.140625 4.335938 -27.179688 2.417969 -26.304688 C 0.75 -25.554688 0.167969 -23.554688 0.957031 -21.96875 C 2.125 -19.511719 5.335938 -19.84375 7.585938 -19.96875 C 7.753906 -15.257812 7.253906 -10.671875 7.085938 -6.003906 C 6.960938 -3.625 7.085938 0.0429688 10.339844 0 Z M 10.339844 0 "/></g></g></g><g fill="#8c52ff" fill-opacity="1"><g transform="translate(89.666299, 134.035971)"><g><path d="M 13.882812 -0.667969 C 20.136719 -3.042969 20.761719 -12.132812 19.71875 -17.757812 C 18.550781 -24.011719 12.839844 -26.554688 7.003906 -24.472656 C -0.5 -21.804688 -0.125 -13.546875 1.792969 -7.210938 C 2.625 -4.417969 3.5 -2 6.335938 -0.75 C 8.628906 0.25 11.507812 0.207031 13.882812 -0.667969 Z M 8.753906 -6.296875 C 7.128906 -7.960938 7.253906 -12.671875 7.921875 -14.800781 C 8.421875 -16.300781 11.003906 -18.382812 12.796875 -17.425781 C 15.175781 -16.089844 14.382812 -10.339844 13.839844 -8.210938 C 13.171875 -5.753906 11.128906 -3.878906 8.753906 -6.296875 Z M 8.753906 -6.296875 "/></g></g></g><g fill="#217393" fill-opacity="1"><g transform="translate(118.081516, 142.898477)"><g><path d="M 1.207031 -3.542969 C 2.335938 3.585938 14.425781 -1.75 17.425781 -4.878906 C 22.136719 -9.796875 24.761719 -18.675781 20.96875 -25.011719 C 19.09375 -28.222656 15.339844 -29.433594 11.839844 -29.640625 C 8.839844 -29.847656 3.917969 -29.640625 1.960938 -26.972656 C -0.0429688 -24.179688 0.792969 -19.386719 0.917969 -16.175781 C 1.082031 -12.046875 0.582031 -7.628906 1.207031 -3.542969 Z M 9.671875 -9.503906 C 7.546875 -9.964844 8.460938 -14.675781 8.460938 -16.21875 C 8.503906 -18.71875 7.796875 -21.554688 11.089844 -20.71875 C 13.589844 -20.136719 15.550781 -18.050781 14.964844 -15.382812 C 14.589844 -13.675781 12.046875 -8.964844 9.671875 -9.503906 Z M 9.671875 -9.503906 "/></g></g></g><g fill="#e06034" fill-opacity="1"><g transform="translate(151.511895, 142.898477)"><g><path d="M 16.050781 -2.375 C 22.011719 -7.503906 20.800781 -16.882812 19.21875 -23.722656 C 20.386719 -26.390625 15.96875 -29.433594 13.964844 -30.015625 C 10.839844 -30.933594 7.546875 -29.808594 5.253906 -27.597656 C 0.5 -23.09375 -0.0429688 -14.800781 1.207031 -8.753906 C 2.710938 -1.625 9.753906 3.085938 16.050781 -2.375 Z M 7.878906 -8.671875 C 5.378906 -10.589844 6.003906 -14.964844 6.421875 -17.632812 C 6.753906 -19.800781 7.335938 -24.722656 10.671875 -23.554688 C 13.964844 -22.386719 13.214844 -16.09375 12.757812 -13.507812 C 12.339844 -11.257812 11.171875 -6.171875 7.878906 -8.671875 Z M 7.878906 -8.671875 "/></g></g></g></svg>